<?xml version="1.0" encoding="UTF-8" standalone="no"?>
<svg
   xmlns:dc="http://purl.org/dc/elements/1.1/"
   xmlns:cc="http://creativecommons.org/ns#"
   xmlns:rdf="http://www.w3.org/1999/02/22-rdf-syntax-ns#"
   xmlns:svg="http://www.w3.org/2000/svg"
   xmlns="http://www.w3.org/2000/svg"
   xmlns:sodipodi="http://sodipodi.sourceforge.net/DTD/sodipodi-0.dtd"
   xmlns:inkscape="http://www.inkscape.org/namespaces/inkscape"
   version="1.1"
   id="Capa_1"
   x="0px"
   y="0px"
   viewBox="0 0 48.000001 48.000001"
   xml:space="preserve"
   sodipodi:docname="roller.svg"
   width="48"
   height="48"
   inkscape:version="1.0 (4035a4f, 2020-05-01)"><metadata
   id="metadata1034"><rdf:RDF><cc:Work
       rdf:about=""><dc:format>image/svg+xml</dc:format><dc:type
         rdf:resource="http://purl.org/dc/dcmitype/StillImage" /><dc:title /></cc:Work></rdf:RDF></metadata><defs
   id="defs1032" /><sodipodi:namedview
   inkscape:document-rotation="0"
   pagecolor="#ffffff"
   bordercolor="#666666"
   borderopacity="1"
   objecttolerance="10"
   gridtolerance="10"
   guidetolerance="10"
   inkscape:pageopacity="0"
   inkscape:pageshadow="2"
   inkscape:window-width="1920"
   inkscape:window-height="1052"
   id="namedview1030"
   showgrid="false"
   inkscape:pagecheckerboard="true"
   inkscape:zoom="13.718777"
   inkscape:cx="46.90877"
   inkscape:cy="26.310804"
   inkscape:window-x="1920"
   inkscape:window-y="0"
   inkscape:window-maximized="1"
   inkscape:current-layer="Capa_1" />
<g
   id="g979"
   transform="matrix(0.07973256,0,0,0.07287401,3.5916282,2.6935336)"
   style="fill:#ededed;fill-opacity:0.70222229;stroke:none;stroke-opacity:1">
	<g
   id="g977"
   style="fill:#ededed;fill-opacity:0.70222229;stroke:none;stroke-opacity:1">
		<path
   d="m 396,40 c -5.52,0 -10,4.48 -10,10 0,5.52 4.48,10 10,10 5.52,0 10,-4.48 10,-10 0,-5.52 -4.48,-10 -10,-10 z"
   id="path975"
   style="fill:#ededed;fill-opacity:0.70222229;stroke:none;stroke-opacity:1" />
	</g>
</g>
<g
   id="g985"
   transform="matrix(0.07973256,0,0,0.07287401,3.5916282,2.6935336)"
   style="fill:#ededed;fill-opacity:0.70222229;stroke:none;stroke-opacity:1">
	<g
   id="g983"
   style="fill:#ededed;fill-opacity:0.70222229;stroke:none;stroke-opacity:1">
		<path
   d="m 246,452 c -5.52,0 -10,4.48 -10,10 0,5.52 4.48,10 10,10 5.52,0 10,-4.48 10,-10 0,-5.52 -4.48,-10 -10,-10 z"
   id="path981"
   style="fill:#ededed;fill-opacity:0.70222229;stroke:none;stroke-opacity:1" />
	</g>
</g>
<g
   id="g991"
   transform="matrix(0.07973256,0,0,0.07287401,3.5916282,2.6935336)"
   style="fill:#ededed;fill-opacity:0.70222229;stroke:none;stroke-opacity:1">
	<g
   id="g989"
   style="fill:#ededed;fill-opacity:0.70222229;stroke:none;stroke-opacity:1">
		<path
   d="M 456,60 H 446 V 30 C 446,13.458 432.542,0 416,0 H 76 C 59.458,0 46,13.458 46,30 V 60 H 36 c -5.523,0 -10,4.478 -10,10 0,5.522 4.477,10 10,10 h 10 v 33 c 0,16.542 13.458,30 30,30 h 340 c 16.542,0 30,-13.458 30,-30 V 80 h 10 c 5.514,0 10,4.486 10,10 v 65.84 c 0,4.974 -3.566,9.132 -8.479,9.887 -0.075,0.012 -0.151,0.024 -0.227,0.037 L 261.315,200.526 C 246.638,202.842 236,215.285 236,230.16 V 243 h -30 c -8.01,0 -15.543,3.121 -21.211,8.79 -5.668,5.668 -8.789,13.2 -8.789,21.21 0,16.085 12.726,29.251 28.639,29.965 L 186.55,443.869 v 10e-4 c 0,0.004 -0.001,0.007 -0.001,0.01 l -0.007,0.056 c -0.001,0.005 0,0.01 -0.001,0.014 -0.358,2.676 -0.54,5.384 -0.54,8.049 0,33.084 26.916,60 60,60 33.084,0 60,-26.916 60,-60 0,-2.661 -0.182,-5.365 -0.539,-8.037 -10e-4,-0.009 -10e-4,-0.017 -0.002,-0.026 l -18.097,-140.97 c 7.499,-0.333 14.504,-3.41 19.849,-8.756 5.667,-5.667 8.788,-13.2 8.788,-21.21 0,-16.542 -13.458,-30 -30,-30 h -30 v -12.84 c 0,-4.974 3.566,-9.132 8.479,-9.887 0.075,-0.012 0.151,-0.024 0.227,-0.037 L 460.685,185.474 C 475.359,183.157 486,170.715 486,155.84 V 90 C 486,73.458 472.542,60 456,60 Z m -30,53 c 0,5.514 -4.486,10 -10,10 H 76 c -5.514,0 -10,-4.486 -10,-10 V 30 c 0,-5.514 4.486,-10 10,-10 h 340 c 5.514,0 10,4.486 10,10 z M 246,492 c -22.056,0 -40,-17.944 -40,-40 0,-1.8 0.125,-3.634 0.37,-5.451 0.002,-0.012 0.001,-0.023 0.003,-0.035 0.001,-0.01 0.004,-0.02 0.005,-0.031 L 224.798,303 h 42.403 l 18.42,143.483 c 0.002,0.012 0.005,0.024 0.006,0.036 10e-4,0.01 10e-4,0.02 0.003,0.03 0.246,1.817 0.37,3.651 0.37,5.451 0,22.056 -17.944,40 -40,40 z m 40,-229 c 5.514,0 10,4.486 10,10 0,2.668 -1.041,5.178 -2.932,7.068 -1.891,1.89 -4.4,2.932 -7.068,2.932 h -10 -60 -10 c -5.514,0 -10,-4.486 -10,-10 0,-2.668 1.041,-5.179 2.931,-7.068 1.89,-1.891 4.401,-2.932 7.069,-2.932 z"
   id="path987"
   style="fill:#ededed;fill-opacity:0.70222229;stroke:none;stroke-opacity:1" />
	</g>
</g>
<g
   id="g997"
   transform="matrix(0.07973256,0,0,0.07287401,3.5916282,2.6935336)"
   style="fill:#ededed;fill-opacity:0.70222229;stroke:none;stroke-opacity:1">
	<g
   id="g995"
   style="fill:#ededed;fill-opacity:0.70222229;stroke:none;stroke-opacity:1">
		<path
   d="M 356,40 H 96 c -5.523,0 -10,4.478 -10,10 0,5.522 4.477,10 10,10 h 260 c 5.522,0 10,-4.478 10,-10 0,-5.522 -4.478,-10 -10,-10 z"
   id="path993"
   style="fill:#ededed;fill-opacity:0.70222229;stroke:none;stroke-opacity:1" />
	</g>
</g>
<g
   id="g999">
</g>
<g
   id="g1001">
</g>
<g
   id="g1003">
</g>
<g
   id="g1005">
</g>
<g
   id="g1007">
</g>
<g
   id="g1009">
</g>
<g
   id="g1011">
</g>
<g
   id="g1013">
</g>
<g
   id="g1015">
</g>
<g
   id="g1017">
</g>
<g
   id="g1019">
</g>
<g
   id="g1021">
</g>
<g
   id="g1023">
</g>
<g
   id="g1025">
</g>
<g
   id="g1027">
</g>
</svg>
